<svg width="64" height="64" viewBox="0 0 64 64" fill="none" xmlns="http://www.w3.org/2000/svg">
<path d="M11.84 11.8439C12.211 11.4724 12.6516 11.1776 13.1367 10.9765C13.6217 10.7754 14.1416 10.6719 14.6667 10.6719C15.1917 10.6719 15.7116 10.7754 16.1967 10.9765C16.6817 11.1776 17.1223 11.4724 17.4933 11.8439L32 26.3452L46.5067 11.8439C46.8779 11.4727 47.3185 11.1782 47.8035 10.9773C48.2885 10.7765 48.8084 10.6731 49.3333 10.6731C49.8583 10.6731 50.3781 10.7765 50.8631 10.9773C51.3481 11.1782 51.7888 11.4727 52.16 11.8439C52.5312 12.2151 52.8256 12.6558 53.0265 13.1408C53.2274 13.6258 53.3308 14.1456 53.3308 14.6706C53.3308 15.1955 53.2274 15.7153 53.0265 16.2003C52.8256 16.6853 52.5312 17.126 52.16 17.4972L37.6587 32.0039L52.16 46.5106C52.9097 47.2602 53.3308 48.277 53.3308 49.3372C53.3308 50.3974 52.9097 51.4142 52.16 52.1639C51.4103 52.9136 50.3935 53.3347 49.3333 53.3347C48.2731 53.3347 47.2563 52.9136 46.5067 52.1639L32 37.6626L17.4933 52.1639C16.7436 52.9136 15.7269 53.3347 14.6667 53.3347C13.6065 53.3347 12.5897 52.9136 11.84 52.1639C11.0903 51.4142 10.6691 50.3974 10.6691 49.3372C10.6691 48.277 11.0903 47.2602 11.84 46.5106L26.3413 32.0039L11.84 17.4972C11.4685 17.1262 11.1737 16.6856 10.9726 16.2006C10.7715 15.7155 10.668 15.1956 10.668 14.6706C10.668 14.1455 10.7715 13.6256 10.9726 13.1406C11.1737 12.6555 11.4685 12.2149 11.84 11.8439Z" fill="#9CA3AF"/>
</svg>
