<svg width="64" height="64" viewBox="0 0 64 64" fill="none" xmlns="http://www.w3.org/2000/svg">
<path fill-rule="evenodd" clip-rule="evenodd" d="M19.3322 6.37012C22.7954 5.60047 26.9968 5.33594 31.9987 5.33594C37.0006 5.33594 41.2019 5.60047 44.6651 6.37012C48.1587 7.14652 51.0622 8.47194 53.2958 10.7055C55.5294 12.939 56.8547 15.8427 57.6312 19.3361C58.4008 22.7994 58.6654 27.0007 58.6654 32.0026C58.6654 37.0045 58.4008 41.2058 57.6312 44.669C56.8547 48.1626 55.5294 51.0661 53.2958 53.2997C51.0622 55.5333 48.1587 56.8586 44.6651 57.6351C41.2019 58.4047 37.0006 58.6693 31.9987 58.6693C26.9968 58.6693 22.7954 58.4047 19.3322 57.6351C15.8388 56.8586 12.9351 55.5333 10.7016 53.2997C8.46803 51.0661 7.14262 48.1626 6.36622 44.669C5.59656 41.2058 5.33203 37.0045 5.33203 32.0026C5.33203 27.0007 5.59656 22.7994 6.36622 19.3361C7.14262 15.8427 8.46803 12.939 10.7016 10.7055C12.9351 8.47194 15.8388 7.14652 19.3322 6.37012Z" fill="#9CA3AF"/>
</svg>
